<svg width="44" height="44" viewBox="0 0 44 44" fill="none" xmlns="http://www.w3.org/2000/svg">
<rect x="44" width="44" height="44" rx="22" transform="rotate(90 44 0)" fill="#2E6EEF"/>
<path d="M24.3113 32.25C24.5083 32.2506 24.7035 32.212 24.8856 32.1366C25.0676 32.0611 25.2328 31.9502 25.3716 31.8103L31.8113 25.3715C31.9506 25.2322 32.0611 25.0669 32.1365 24.8849C32.2119 24.7028 32.2507 24.5078 32.2507 24.3107C32.2507 24.1137 32.2119 23.9187 32.1365 23.7366C32.0611 23.5546 31.9506 23.3893 31.8113 23.25L29.146 20.5847L27.105 15.1472C27.0129 14.9 26.8574 14.6815 26.6542 14.5133C26.451 14.3452 26.2072 14.2333 25.9472 14.189L12.8738 12.0103C12.7663 11.9923 12.6562 11.998 12.5512 12.0268C12.4461 12.0557 12.3486 12.1072 12.2654 12.1776C12.1823 12.248 12.1154 12.3357 12.0696 12.4345C12.0238 12.5334 12 12.641 12 12.75C12.0002 12.7914 12.0036 12.8328 12.0103 12.8737L14.1891 25.9462C14.2324 26.2059 14.3433 26.4496 14.5107 26.6528C14.6781 26.8561 14.896 27.0117 15.1425 27.104L20.58 29.145L23.25 31.8103C23.3889 31.9502 23.5543 32.0612 23.7365 32.1367C23.9187 32.2122 24.1141 32.2507 24.3113 32.25ZM15.6685 25.6997L13.875 14.9362L18.316 19.3772C18.0162 19.9318 17.9261 20.5759 18.0621 21.1915C18.1981 21.8072 18.5512 22.3533 19.0567 22.73C19.5623 23.1068 20.1865 23.289 20.8154 23.2433C21.4442 23.1977 22.0356 22.9272 22.4814 22.4814C22.9273 22.0356 23.1977 21.4442 23.2434 20.8153C23.289 20.1865 23.1068 19.5622 22.7301 19.0567C22.3533 18.5511 21.8072 18.198 21.1916 18.062C20.5759 17.926 19.9319 18.0161 19.3772 18.3159L14.9344 13.875L25.7006 15.6684L27.6291 20.8125L20.8125 27.6281L15.6685 25.6997ZM20.625 19.5C20.8475 19.5 21.065 19.5659 21.25 19.6896C21.435 19.8132 21.5792 19.9889 21.6644 20.1944C21.7495 20.4 21.7718 20.6262 21.7284 20.8444C21.685 21.0627 21.5779 21.2631 21.4205 21.4205C21.2632 21.5778 21.0627 21.6849 20.8445 21.7284C20.6263 21.7718 20.4001 21.7495 20.1945 21.6643C19.9889 21.5792 19.8132 21.435 19.6896 21.25C19.566 21.065 19.5 20.8475 19.5 20.625C19.5 20.3266 19.6185 20.0405 19.8295 19.8295C20.0405 19.6185 20.3267 19.5 20.625 19.5ZM22.0613 28.5L28.5 22.0603L30.75 24.3103L24.3113 30.75L22.0613 28.5Z" fill="white"/>
</svg>
